<svg height='100px' width='100px'  fill="#004d69" xmlns="http://www.w3.org/2000/svg" version="1.1" viewBox="0 0 32 32" x="0px" y="0px"><title>speech-bubble-2</title><path d="M16 0.6c-4.115 0-7.981 1.6-10.895 4.514-5.579 5.579-6.010 14.462-1.113 20.541l0.246 0.305-0.18 0.348c-0.673 1.306-1.53 2.261-2.578 2.777h-0.002c-0.434 0.213-0.67 0.67-0.598 1.146 0.073 0.486 0.431 0.848 0.912 0.92h0.002l0.002 0.002c0.378 0.060 0.787 0.092 1.207 0.092 1.083 0 3.146-0.215 5.197-1.584l0.297-0.199 0.316 0.166c2.206 1.162 4.67 1.773 7.186 1.773 4.115 0 7.981-1.6 10.895-4.514 2.907-2.907 4.506-6.764 4.506-10.887 0-4.115-1.6-7.981-4.514-10.895-2.914-2.907-6.772-4.506-10.887-4.506zM15.998 1.641c3.833 0 7.446 1.496 10.156 4.205s4.205 6.322 4.205 10.154c0 3.833-1.496 7.444-4.205 10.154s-6.324 4.205-10.156 4.205c-2.562 0-5.075-0.681-7.271-1.977l-0.002-0.002c-0.081-0.048-0.17-0.072-0.262-0.072-0.113 0-0.22 0.034-0.316 0.107l-0.002 0.002c-1.62 1.261-3.309 1.652-4.457 1.75l-1.785 0.152 1.334-1.197c0.81-0.727 1.515-1.748 2.090-3.064l0.002-0.002c0.082-0.184 0.050-0.394-0.088-0.547v-0.002h-0.002c-5.021-5.662-4.753-14.31 0.607-19.664 2.709-2.708 6.321-4.203 10.152-4.203z"></path></svg>