<svg height='100px' width='100px'  fill="#004d69" xmlns="http://www.w3.org/2000/svg" xmlns:xlink="http://www.w3.org/1999/xlink" version="1.1" x="0px" y="0px" viewBox="0 0 100 100" style="enable-background:new 0 0 100 100;" xml:space="preserve"><path d="M54.9,9.6c-22.8,0-41.3,18.5-41.3,41.3c0,7.8,2.2,15.1,6,21.4L4.1,92.1l25.5-8.6c7,5.4,15.7,8.6,25.2,8.6  c22.8,0,41.3-18.5,41.3-41.3C96.2,28.1,77.7,9.6,54.9,9.6z M53.6,68.8c-2.2,0-4-1.8-4-4c0-2.2,1.8-4,4-4c2.2,0,4,1.8,4,4  C57.6,67,55.8,68.8,53.6,68.8z M57.4,53.6c-1.2,1.7-0.8,4.1-4,4.1c-2.1,0-3.1-1.7-3.1-3.2c0-5.8,8.5-7.1,8.5-11.8  c0-2.6-1.7-4.2-4.7-4.2c-6.2,0-3.8,6.4-8.5,6.4c-1.7,0-3.2-1-3.2-3c0-4.8,5.4-9,11.4-9c6.2,0,12.3,2.9,12.3,9.7  C66.1,48.9,58.9,51.4,57.4,53.6z"></path></svg>