<svg  fill="#ffb732" xmlns="http://www.w3.org/2000/svg" xmlns:xlink="http://www.w3.org/1999/xlink" version="1.1" x="0px" y="0px" viewBox="0 0 60 60" style="enable-background:new 0 0 60 60;" xml:space="preserve"><path d="M50.17,25.25c-0.28-0.83-0.98-1.43-1.85-1.56l-11.24-1.63l-5.02-10.19c-0.39-0.79-1.18-1.27-2.05-1.27  c-0.88,0-1.66,0.49-2.05,1.27l-5.03,10.19l-11.24,1.63c-0.87,0.13-1.57,0.73-1.84,1.56c-0.28,0.84-0.05,1.74,0.58,2.34l8.14,7.93  l-1.92,11.19c-0.15,0.87,0.2,1.72,0.91,2.24c0.71,0.51,1.63,0.58,2.41,0.17L30,43.85l10.05,5.28c0.34,0.18,0.71,0.27,1.07,0.27  c0.47,0,0.94-0.15,1.34-0.44c0.71-0.52,1.06-1.37,0.91-2.24l-1.91-11.19l8.13-7.93C50.22,26.99,50.44,26.09,50.17,25.25z"></path></svg>
