<svg height='100px' width='100px'  fill="#48a24a" xmlns="http://www.w3.org/2000/svg" xmlns:xlink="http://www.w3.org/1999/xlink" version="1.1" x="0px" y="0px" viewBox="0 0 100 100" enable-background="new 0 0 100 100" xml:space="preserve"><path d="M93.4,56c-1.5-3.7-1.5-7.8,0-11.4l0.5-1.2c3.2-7.6-0.5-16.4-8.1-19.6l-1.1-0.5c-3.7-1.5-6.6-4.4-8.1-8.1l-0.4-1  C72.9,6.6,64.2,3,56.5,6.1l-1,0.4c-3.7,1.5-7.8,1.5-11.5,0l-0.9-0.4C35.6,3,26.8,6.7,23.6,14.3l-0.4,0.8c-1.5,3.7-4.4,6.6-8.1,8.1  l-0.9,0.4C6.7,26.8,3,35.6,6.2,43.2l0.4,0.9c1.5,3.7,1.5,7.8,0,11.4l-0.4,1.1C3,64.2,6.6,73,14.3,76.1l1,0.4  c3.7,1.5,6.6,4.4,8.1,8.1l0.5,1.1C27,93.4,35.8,97,43.4,93.9l1.1-0.5c3.7-1.5,7.8-1.5,11.5,0l0.9,0.4c7.6,3.2,16.4-0.5,19.6-8.1  l0.4-0.8c1.5-3.7,4.4-6.6,8.1-8.1l0.8-0.3c7.7-3.2,11.3-11.9,8.1-19.6L93.4,56z M45.8,69.5L45.8,69.5L26.3,53.1l6-7.1l12.4,10.5  l21.9-26l7.1,6L45.8,69.5L45.8,69.5z"></path></svg>